<svg width="410" height="143" viewBox="0 0 410 143" fill="none" xmlns="http://www.w3.org/2000/svg">
<path d="M42.2819 103.99C31.9019 103.99 24.0119 100.99 18.6119 94.99C13.2119 88.93 10.5119 80.65 10.5119 70.15C10.5119 63.07 11.9519 56.92 14.8319 51.7C17.7119 46.42 21.6719 42.4 26.7119 39.64C31.7519 36.82 37.4519 35.41 43.8119 35.41C46.3319 35.41 48.7619 35.56 51.1019 35.86C53.4419 36.1 56.2619 36.46 59.5619 36.94C62.1419 37.36 63.9119 37.6 64.8719 37.66L63.7919 57.73H54.1619L51.1019 43.96C49.7819 42.52 47.0219 41.8 42.8219 41.8C38.2019 41.8 34.5419 44.11 31.8419 48.73C29.2019 53.29 27.8819 60.01 27.8819 68.89C27.8819 77.53 29.1719 84.46 31.7519 89.68C34.3919 94.9 38.2019 97.51 43.1819 97.51C45.6419 97.51 47.5019 97.27 48.7619 96.79C50.0819 96.31 51.1919 95.62 52.0919 94.72L56.1419 85.09L64.9619 85.9L63.3419 100.57C61.6019 100.69 59.4719 101.14 56.9519 101.92C54.5519 102.58 52.2719 103.09 50.1119 103.45C48.0119 103.81 45.4019 103.99 42.2819 103.99ZM110.392 103.99C100.312 103.99 92.8417 100.96 87.9817 94.9C83.1217 88.78 80.6917 80.38 80.6917 69.7C80.6917 62.8 81.9517 56.77 84.4717 51.61C87.0517 46.39 90.6517 42.37 95.2717 39.55C99.8917 36.73 105.292 35.32 111.472 35.32C121.792 35.32 129.382 38.2 134.242 43.96C139.162 49.66 141.622 57.82 141.622 68.44C141.622 75.46 140.332 81.67 137.752 87.07C135.172 92.41 131.512 96.58 126.772 99.58C122.092 102.52 116.632 103.99 110.392 103.99ZM111.202 41.26C106.882 41.26 103.522 43.63 101.122 48.37C98.7817 53.11 97.6117 60.19 97.6117 69.61C97.6117 79.21 98.7817 86.35 101.122 91.03C103.462 95.65 106.792 97.96 111.112 97.96C115.372 97.96 118.672 95.44 121.012 90.4C123.412 85.3 124.612 78.01 124.612 68.53C124.612 58.93 123.472 52 121.192 47.74C118.912 43.42 115.582 41.26 111.202 41.26ZM152.972 36.13H181.682V42.43L174.212 43.69L184.922 83.38L186.632 91.75L188.162 83.38L197.342 51.34L194.732 43.69L189.062 42.43V36.13H219.122V42.43L210.572 43.69L221.282 83.38L223.262 92.47L224.792 83.38L234.422 43.69L226.772 42.43V36.13H248.642V42.43L243.062 43.69L226.412 103.45H212.642L201.032 63.4L190.052 103.45H176.462L158.192 43.69L152.972 42.43V36.13ZM289.683 103.99C279.603 103.99 272.133 100.96 267.273 94.9C262.413 88.78 259.983 80.38 259.983 69.7C259.983 62.8 261.243 56.77 263.763 51.61C266.343 46.39 269.943 42.37 274.563 39.55C279.183 36.73 284.583 35.32 290.763 35.32C301.083 35.32 308.673 38.2 313.533 43.96C318.453 49.66 320.913 57.82 320.913 68.44C320.913 75.46 319.623 81.67 317.043 87.07C314.463 92.41 310.803 96.58 306.063 99.58C301.383 102.52 295.923 103.99 289.683 103.99ZM290.493 41.26C286.173 41.26 282.813 43.63 280.413 48.37C278.073 53.11 276.903 60.19 276.903 69.61C276.903 79.21 278.073 86.35 280.413 91.03C282.753 95.65 286.083 97.96 290.403 97.96C294.663 97.96 297.963 95.44 300.303 90.4C302.703 85.3 303.903 78.01 303.903 68.53C303.903 58.93 302.763 52 300.483 47.74C298.203 43.42 294.873 41.26 290.493 41.26ZM343.963 43.69L337.303 42.43V36.13H351.973C352.933 36.13 354.793 36.07 357.553 35.95C361.033 35.71 364.183 35.59 367.003 35.59C373.483 35.59 378.583 36.37 382.303 37.93C386.023 39.49 388.663 41.74 390.223 44.68C391.783 47.56 392.563 51.22 392.563 55.66C392.563 63.34 390.223 69.31 385.543 73.57C380.863 77.83 374.203 79.96 365.563 79.96C362.863 79.96 360.793 79.87 359.353 79.69V96.07L371.233 97.06V103H337.033V97.06L343.963 96.16V43.69ZM359.263 73.48C360.463 73.78 362.443 73.93 365.203 73.93C373.003 73.93 376.903 67.96 376.903 56.02C376.903 51.04 375.913 47.41 373.933 45.13C372.013 42.79 369.103 41.62 365.203 41.62C363.523 41.62 362.203 41.71 361.243 41.89C360.283 42.01 359.623 42.1 359.263 42.16V73.48Z" fill="#828B9B"/>
</svg>
