<svg width="383" height="69" viewBox="0 0 383 69" fill="none" xmlns="http://www.w3.org/2000/svg">
<path d="M32.2819 68.99C21.9019 68.99 14.0119 65.99 8.61188 59.99C3.21188 53.93 0.511875 45.65 0.511875 35.15C0.511875 28.07 1.95188 21.92 4.83188 16.7C7.71188 11.42 11.6719 7.4 16.7119 4.63999C21.7519 1.82 27.4519 0.409996 33.8119 0.409996C36.3319 0.409996 38.7619 0.559996 41.1019 0.859995C43.4419 1.1 46.2619 1.46 49.5619 1.94C52.1419 2.36 53.9119 2.6 54.8719 2.66L53.7919 22.73H44.1619L41.1019 8.96C39.7819 7.52 37.0219 6.8 32.8219 6.8C28.2019 6.8 24.5419 9.11 21.8419 13.73C19.2019 18.29 17.8819 25.01 17.8819 33.89C17.8819 42.53 19.1719 49.46 21.7519 54.68C24.3919 59.9 28.2019 62.51 33.1819 62.51C35.6419 62.51 37.5019 62.27 38.7619 61.79C40.0819 61.31 41.1919 60.62 42.0919 59.72L46.1419 50.09L54.9619 50.9L53.3419 65.57C51.6019 65.69 49.4719 66.14 46.9519 66.92C44.5519 67.58 42.2719 68.09 40.1119 68.45C38.0119 68.81 35.4019 68.99 32.2819 68.99ZM100.392 68.99C90.3117 68.99 82.8417 65.96 77.9817 59.9C73.1217 53.78 70.6917 45.38 70.6917 34.7C70.6917 27.8 71.9517 21.77 74.4717 16.61C77.0517 11.39 80.6517 7.37 85.2717 4.55C89.8917 1.73 95.2917 0.319997 101.472 0.319997C111.792 0.319997 119.382 3.2 124.242 8.96C129.162 14.66 131.622 22.82 131.622 33.44C131.622 40.46 130.332 46.67 127.752 52.07C125.172 57.41 121.512 61.58 116.772 64.58C112.092 67.52 106.632 68.99 100.392 68.99ZM101.202 6.26C96.8817 6.26 93.5217 8.63 91.1217 13.37C88.7817 18.11 87.6117 25.19 87.6117 34.61C87.6117 44.21 88.7817 51.35 91.1217 56.03C93.4617 60.65 96.7917 62.96 101.112 62.96C105.372 62.96 108.672 60.44 111.012 55.4C113.412 50.3 114.612 43.01 114.612 33.53C114.612 23.93 113.472 17 111.192 12.74C108.912 8.42 105.582 6.26 101.202 6.26ZM142.972 1.13H171.682V7.43L164.212 8.69L174.922 48.38L176.632 56.75L178.162 48.38L187.342 16.34L184.732 8.69L179.062 7.43V1.13H209.122V7.43L200.572 8.69L211.282 48.38L213.262 57.47L214.792 48.38L224.422 8.69L216.772 7.43V1.13H238.642V7.43L233.062 8.69L216.412 68.45H202.642L191.032 28.4L180.052 68.45H166.462L148.192 8.69L142.972 7.43V1.13ZM279.683 68.99C269.603 68.99 262.133 65.96 257.273 59.9C252.413 53.78 249.983 45.38 249.983 34.7C249.983 27.8 251.243 21.77 253.763 16.61C256.343 11.39 259.943 7.37 264.563 4.55C269.183 1.73 274.583 0.319997 280.763 0.319997C291.083 0.319997 298.673 3.2 303.533 8.96C308.453 14.66 310.913 22.82 310.913 33.44C310.913 40.46 309.623 46.67 307.043 52.07C304.463 57.41 300.803 61.58 296.063 64.58C291.383 67.52 285.923 68.99 279.683 68.99ZM280.493 6.26C276.173 6.26 272.813 8.63 270.413 13.37C268.073 18.11 266.903 25.19 266.903 34.61C266.903 44.21 268.073 51.35 270.413 56.03C272.753 60.65 276.083 62.96 280.403 62.96C284.663 62.96 287.963 60.44 290.303 55.4C292.703 50.3 293.903 43.01 293.903 33.53C293.903 23.93 292.763 17 290.483 12.74C288.203 8.42 284.873 6.26 280.493 6.26ZM333.963 8.69L327.303 7.43V1.13H341.973C342.933 1.13 344.793 1.07 347.553 0.949994C351.033 0.709997 354.183 0.589999 357.003 0.589999C363.483 0.589999 368.583 1.37 372.303 2.93C376.023 4.49 378.663 6.74 380.223 9.68C381.783 12.56 382.563 16.22 382.563 20.66C382.563 28.34 380.223 34.31 375.543 38.57C370.863 42.83 364.203 44.96 355.563 44.96C352.863 44.96 350.793 44.87 349.353 44.69V61.07L361.233 62.06V68H327.033V62.06L333.963 61.16V8.69ZM349.263 38.48C350.463 38.78 352.443 38.93 355.203 38.93C363.003 38.93 366.903 32.96 366.903 21.02C366.903 16.04 365.913 12.41 363.933 10.13C362.013 7.79 359.103 6.62 355.203 6.62C353.523 6.62 352.203 6.71 351.243 6.89C350.283 7.01 349.623 7.1 349.263 7.15999V38.48Z" fill="#828B9B"/>
</svg>
