<svg width="280" height="109" viewBox="0 0 280 109" fill="none" xmlns="http://www.w3.org/2000/svg">
<circle cx="45" cy="64" r="40" stroke="#FD5E60" stroke-width="10"/>
<circle cx="45" cy="64" r="15" stroke="#FD5E60" stroke-width="10"/>
<path d="M122.71 40.3636V86.7273C122.71 90.7898 121.034 93.0057 117 93.0057C116.517 93.0057 116.148 93.0057 115.636 92.9773V100.307H117.284C126.403 100.42 131.205 95.5341 131.205 86.7841V40.3636H122.71ZM126.915 33.6307C129.841 33.6307 132.284 31.358 132.284 28.5739C132.284 25.7898 129.841 23.4886 126.915 23.4886C123.96 23.4886 121.545 25.7898 121.545 28.5739C121.545 31.358 123.96 33.6307 126.915 33.6307ZM170.274 65.9034C170.303 73.3182 164.791 76.8409 160.018 76.8409C154.763 76.8409 151.126 73.0341 151.126 67.0966V40.3636H142.632V68.1193C142.632 78.9432 148.57 84.5682 156.95 84.5682C163.513 84.5682 167.973 81.1023 169.99 76.4432H170.445V84H178.797V40.3636H170.274V65.9034ZM198.705 58.0909C198.705 51.1307 202.966 47.1534 208.875 47.1534C214.642 47.1534 218.136 50.9318 218.136 57.267V84H226.631V56.2443C226.631 45.4489 220.693 39.7955 211.773 39.7955C205.21 39.7955 200.92 42.8352 198.903 47.4659H198.364V40.3636H190.21V84H198.705V58.0909ZM256.83 84.8807C266.347 84.8807 273.08 80.1932 275.011 73.0909L266.972 71.642C265.438 75.7614 261.744 77.8636 256.915 77.8636C249.642 77.8636 244.756 73.1477 244.528 64.7386H275.551V61.7273C275.551 45.9602 266.119 39.7955 256.233 39.7955C244.074 39.7955 236.062 49.0568 236.062 62.4659C236.062 76.017 243.96 84.8807 256.83 84.8807ZM244.557 58.375C244.898 52.1818 249.386 46.8125 256.29 46.8125C262.881 46.8125 267.199 51.6989 267.227 58.375H244.557Z" fill="black"/>
</svg>
